<svg xmlns="http://www.w3.org/2000/svg" width="987" height="544.778" viewBox="0 0 987 544.778">
  <g id="Group_174" data-name="Group 174" transform="translate(-350 -5823.222)">
    <g id="flowKitConnector" transform="translate(489.425 6141.802)">
      <path id="line" d="M310.8,222.683H453.36" transform="translate(-310.802 -219.549)" fill="none" stroke="#9ca8c5" stroke-width="1"/>
      <path id="leftEdge" transform="translate(0 3.133)" fill="none" stroke="rgba(0,0,0,0)" stroke-width="1"/>
      <path id="rightEdge" d="M-3.75-2h0L2.125,1.133-3.75,4.266l1.175-3.133Z" transform="translate(140.434 2)" fill="#9ca8c5" stroke="#9ca8c5" stroke-width="1"/>
    </g>
    <g id="flowKitConnector-2" data-name="flowKitConnector" transform="translate(735.223 6170.497) rotate(90)">
      <path id="line-2" data-name="line" d="M0,0H45.089" transform="translate(0 3.133)" fill="none" stroke="#9ca8c5" stroke-width="1"/>
      <path id="leftEdge-2" data-name="leftEdge" transform="translate(0 3.133)" fill="none" stroke="rgba(0,0,0,0)" stroke-width="1"/>
      <path id="rightEdge-2" data-name="rightEdge" d="M0,0H0L5.875,3.133,0,6.266,1.175,3.133Z" transform="translate(39.214 0)" fill="#9ca8c5" stroke="#9ca8c5" stroke-width="1"/>
    </g>
    <g id="flowKitConnector-3" data-name="flowKitConnector" transform="translate(670.993 6217.495) rotate(-90)">
      <path id="line-3" data-name="line" d="M0,0H46.05" transform="translate(0 3.133)" fill="none" stroke="#9ca8c5" stroke-width="1"/>
      <path id="leftEdge-3" data-name="leftEdge" transform="translate(0 3.133)" fill="none" stroke="rgba(0,0,0,0)" stroke-width="1"/>
      <path id="rightEdge-3" data-name="rightEdge" d="M0,0H0L5.875,3.133,0,6.266,1.175,3.133Z" transform="translate(40.175 0)" fill="#9ca8c5" stroke="#9ca8c5" stroke-width="1"/>
    </g>
    <g id="flowKitConnector-4" data-name="flowKitConnector" transform="translate(699.192 6120.366) rotate(-90)">
      <path id="line-4" data-name="line" d="M0,0H46.05" transform="translate(0 3.133)" fill="none" stroke="#9ca8c5" stroke-width="1"/>
      <path id="leftEdge-4" data-name="leftEdge" transform="translate(0 3.133)" fill="none" stroke="rgba(0,0,0,0)" stroke-width="1"/>
      <path id="rightEdge-4" data-name="rightEdge" d="M0,0H0L5.875,3.133,0,6.266,1.175,3.133Z" transform="translate(40.175 0)" fill="#9ca8c5" stroke="#9ca8c5" stroke-width="1"/>
    </g>
    <g id="flowKitConnector-5" data-name="flowKitConnector" transform="translate(1266.549 6218.275) rotate(-90)">
      <path id="line-5" data-name="line" d="M0,0H46.05" transform="translate(0 3.133)" fill="none" stroke="#9ca8c5" stroke-width="1"/>
      <path id="leftEdge-5" data-name="leftEdge" transform="translate(0 3.133)" fill="none" stroke="rgba(0,0,0,0)" stroke-width="1"/>
      <path id="rightEdge-5" data-name="rightEdge" d="M0,0H0L5.875,3.133,0,6.266,1.175,3.133Z" transform="translate(40.175 0)" fill="#9ca8c5" stroke="#9ca8c5" stroke-width="1"/>
    </g>
    <g id="flowKitConnector-6" data-name="flowKitConnector" transform="translate(1266.549 6060.284) rotate(-90)">
      <path id="line-6" data-name="line" d="M0,0H49.747" transform="translate(0 3.133)" fill="none" stroke="#9ca8c5" stroke-width="1"/>
      <path id="leftEdge-6" data-name="leftEdge" transform="translate(0 3.133)" fill="none" stroke="rgba(0,0,0,0)" stroke-width="1"/>
      <path id="rightEdge-6" data-name="rightEdge" d="M0,0H0L5.875,3.133,0,6.266,1.175,3.133Z" transform="translate(43.872 0)" fill="#9ca8c5" stroke="#9ca8c5" stroke-width="1"/>
    </g>
    <g id="flowKitConnector-7" data-name="flowKitConnector" transform="translate(877.782 6120.366) rotate(-90)">
      <path id="line-7" data-name="line" d="M0,0H46.05" transform="translate(0 3.133)" fill="none" stroke="#9ca8c5" stroke-width="1"/>
      <path id="leftEdge-7" data-name="leftEdge" transform="translate(0 3.133)" fill="none" stroke="rgba(0,0,0,0)" stroke-width="1"/>
      <path id="rightEdge-7" data-name="rightEdge" d="M0,0H0L5.875,3.133,0,6.266,1.175,3.133Z" transform="translate(40.175 0)" fill="#9ca8c5" stroke="#9ca8c5" stroke-width="1"/>
    </g>
    <g id="flowKitConnector-8" data-name="flowKitConnector" transform="translate(877.782 5959.996) rotate(-90)">
      <path id="line-8" data-name="line" d="M0,0H47.037" transform="translate(0 3.133)" fill="none" stroke="#9ca8c5" stroke-width="1"/>
      <path id="leftEdge-8" data-name="leftEdge" transform="translate(0 3.133)" fill="#dae0eb" stroke="rgba(0,0,0,0)" stroke-width="1"/>
      <path id="rightEdge-8" data-name="rightEdge" d="M0,0H0L5.875,3.133,0,6.266,1.175,3.133Z" transform="translate(41.162 0)" fill="#9ca8c5" stroke="#9ca8c5" stroke-width="1"/>
    </g>
    <g id="flowKitConnector-9" data-name="flowKitConnector" transform="translate(517.469 5926.111) rotate(-90)">
      <path id="line-9" data-name="line" d="M0,0H36.65" transform="translate(0 3.133)" fill="none" stroke="#9ca8c5" stroke-width="1"/>
      <path id="leftEdge-9" data-name="leftEdge" transform="translate(0 3.133)" fill="none" stroke="rgba(0,0,0,0)" stroke-width="1"/>
      <path id="rightEdge-9" data-name="rightEdge" d="M0,0H0L5.875,3.133,0,6.266,1.175,3.133Z" transform="translate(30.776 0)" fill="#9ca8c5" stroke="#9ca8c5" stroke-width="1"/>
    </g>
    <g id="flowKitConnector-10" data-name="flowKitConnector" transform="translate(771.409 6131.807)">
      <path id="line-10" data-name="line" d="M310.8,222.683h38.874" transform="translate(-310.802 -219.549)" fill="none" stroke="#9ca8c5" stroke-width="1"/>
      <path id="leftEdge-10" data-name="leftEdge" transform="translate(0 3.133)" fill="none" stroke="rgba(0,0,0,0)" stroke-width="1"/>
      <path id="rightEdge-10" data-name="rightEdge" d="M-3.75-2h0L2.125,1.133-3.75,4.266l1.175-3.133Z" transform="translate(36.749 2)" fill="#9ca8c5" stroke="#9ca8c5" stroke-width="1"/>
    </g>
    <g id="flowKitConnector-11" data-name="flowKitConnector" transform="translate(1124.624 6242.499)">
      <path id="line-11" data-name="line" d="M310.8,222.683h75.085" transform="translate(-310.802 -219.549)" fill="none" stroke="#9ca8c5" stroke-width="1"/>
      <path id="leftEdge-11" data-name="leftEdge" transform="translate(0 3.133)" fill="none" stroke="rgba(0,0,0,0)" stroke-width="1"/>
      <path id="rightEdge-11" data-name="rightEdge" d="M-3.75-2h0L2.125,1.133-3.75,4.266l1.175-3.133Z" transform="translate(72.96 2)" fill="#9ca8c5" stroke="#9ca8c5" stroke-width="1"/>
    </g>
    <g id="flowKitConnector-12" data-name="flowKitConnector" transform="translate(812.141 6158.438) rotate(180)">
      <path id="line-12" data-name="line" d="M0,0H39.163" transform="translate(0 3.133)" fill="none" stroke="#9ca8c5" stroke-width="1"/>
      <path id="leftEdge-12" data-name="leftEdge" transform="translate(0 3.133)" fill="none" stroke="rgba(0,0,0,0)" stroke-width="1"/>
      <path id="rightEdge-12" data-name="rightEdge" d="M0,0H0L5.875,3.133,0,6.266,1.175,3.133Z" transform="translate(33.289 0)" fill="#9ca8c5" stroke="#9ca8c5" stroke-width="1"/>
    </g>
    <g id="flowKitConnector-13" data-name="flowKitConnector" transform="translate(948.433 6142.772)">
      <path id="line-13" data-name="line" d="M310.8,222.683h40.625" transform="translate(-310.802 -219.549)" fill="none" stroke="#9ca8c5" stroke-width="1"/>
      <path id="leftEdge-13" data-name="leftEdge" transform="translate(0 3.133)" fill="none" stroke="rgba(0,0,0,0)" stroke-width="1"/>
      <path id="rightEdge-13" data-name="rightEdge" d="M-3.75-2h0L2.125,1.133-3.75,4.266l1.175-3.133Z" transform="translate(38.501 2)" fill="#9ca8c5" stroke="#9ca8c5" stroke-width="1"/>
    </g>
    <g id="flowKitConnector-14" data-name="flowKitConnector" transform="translate(363.655 6135.826) rotate(-90)">
      <path id="line-14" data-name="line" d="M0,113.313H0V0L70.808.028" transform="translate(85.849 156.63)" fill="none" stroke="#9ca8c5" stroke-width="1"/>
      <path id="leftEdge-14" data-name="leftEdge" transform="translate(0 0)" fill="none" stroke="rgba(0,0,0,0)" stroke-width="1"/>
      <path id="rightEdge-14" data-name="rightEdge" d="M0,0H0L5.875,3.133,0,6.266,1.175,3.133Z" transform="translate(150.783 153.525)" fill="#9ca8c5" stroke="#9ca8c5" stroke-width="1"/>
    </g>
    <g id="flowKitConnector-15" data-name="flowKitConnector" transform="translate(631.785 6286.463) rotate(180)">
      <path id="line-15" data-name="line" d="M127.44,114.357h0L127.37,0H0" transform="translate(0 156.658)" fill="none" stroke="#9ca8c5" stroke-width="1"/>
      <path id="leftEdge-15" data-name="leftEdge" transform="translate(110.942)" fill="none" stroke="rgba(0,0,0,0)" stroke-width="1"/>
      <path id="rightEdge-15" data-name="rightEdge" d="M5.875,0h0L0,3.133,5.875,6.266,4.7,3.133Z" transform="translate(0 153.525)" fill="#9ca8c5" stroke="#9ca8c5" stroke-width="1"/>
    </g>
    <path id="Path_3" data-name="Path 3" d="M84.6,0H0" transform="translate(419.713 6016.189)" fill="none" stroke="#9ca8c5" stroke-width="1"/>
    <path id="Path_5" data-name="Path 5" d="M36.171.025,0,0" transform="translate(418.784 5864.231)" fill="none" stroke="#9ca8c5" stroke-width="1"/>
    <path id="Path_4" data-name="Path 4" d="M153.457.033,0,0" transform="translate(419.72 5863.448) rotate(90)" fill="none" stroke="#9ca8c5" stroke-width="1"/>
    <g id="flowKitConnector-16" data-name="flowKitConnector" transform="translate(858.312 5864.452) rotate(90)">
      <path id="line-16" data-name="line" d="M.007,0h0L0,80.118H134.726" transform="translate(21.932 46.103)" fill="none" stroke="#9ca8c5" stroke-width="1"/>
      <path id="leftEdge-16" data-name="leftEdge" transform="translate(0 0)" fill="none" stroke="rgba(0,0,0,0)" stroke-width="1"/>
      <path id="rightEdge-16" data-name="rightEdge" d="M0,0H0L5.875,3.133,0,6.266,1.175,3.133Z" transform="translate(150.783 123.088)" fill="#9ca8c5" stroke="#9ca8c5" stroke-width="1"/>
    </g>
    <g id="flowKitConnector-17" data-name="flowKitConnector" transform="translate(1269.477 5823.722) rotate(90)">
      <path id="line-17" data-name="line" d="M.006,0h0L0,595.35H197.389" transform="translate(0)" fill="none" stroke="#9ca8c5" stroke-width="1"/>
      <path id="leftEdge-17" data-name="leftEdge" transform="translate(40.731 476.645)" fill="none" stroke="rgba(0,0,0,0)" stroke-width="1"/>
      <path id="rightEdge-17" data-name="rightEdge" d="M0,0H0L5.875,3.133,0,6.266,1.175,3.133Z" transform="translate(191.514 592.217)" fill="#9ca8c5" stroke="#9ca8c5" stroke-width="1"/>
    </g>
    <line id="Line_1" data-name="Line 1" y2="148.035" transform="translate(1269.053 5823.5)" fill="none" stroke="#9ca8c5" stroke-width="1"/>
    <g id="flowKitConnector-18" data-name="flowKitConnector" transform="translate(948.468 6145.594)">
      <path id="line-18" data-name="line" d="M468.511,154.1v96.969h21.131" transform="translate(-447.38 -154.103)" fill="none" stroke="#9ca8c5" stroke-width="1"/>
      <path id="leftEdge-18" data-name="leftEdge" transform="translate(0 0)" fill="none" stroke="rgba(0,0,0,0)" stroke-width="1"/>
      <path id="rightEdge-18" data-name="rightEdge" d="M-3.75-2h0L2.125,1.133-3.75,4.266l1.175-3.133Z" transform="translate(40.138 95.836)" fill="#9ca8c5" stroke="#9ca8c5" stroke-width="1"/>
    </g>
    <g id="flowKitConnector-19" data-name="flowKitConnector" transform="translate(935.453 6015.532)">
      <path id="line-19" data-name="line" d="M440.715,213.08h26.8v32.928h26.8" transform="translate(-440.714 -213.08)" fill="none" stroke="#9ca8c5" stroke-width="1"/>
      <path id="leftEdge-19" data-name="leftEdge" transform="translate(0)" fill="none" stroke="rgba(0,0,0,0)" stroke-width="1"/>
      <path id="rightEdge-19" data-name="rightEdge" d="M-3.75-2h0L2.125,1.133-3.75,4.266l1.175-3.133Z" transform="translate(51.481 31.795)" fill="#9ca8c5" stroke="#9ca8c5" stroke-width="1"/>
    </g>
    <text id="Y" transform="translate(947 6007)" fill="#353f67" font-size="14" font-family="OpenSans-Bold, Open Sans" font-weight="700"><tspan x="-4.368" y="0">Y</tspan></text>
    <text id="N" transform="translate(892 5946)" fill="#353f67" font-size="13" font-family="OpenSans-Bold, Open Sans" font-weight="700"><tspan x="-5.284" y="0">N</tspan></text>
    <text id="N-2" data-name="N" transform="translate(1285 6046)" fill="#353f67" font-size="13" font-family="OpenSans-Bold, Open Sans" font-weight="700"><tspan x="-5.284" y="0">N</tspan></text>
    <g id="flowKitConnector-20" data-name="flowKitConnector" transform="translate(948.468 6145.594)">
      <path id="line-20" data-name="line" d="M468.511,154.1V351.764h21.131" transform="translate(-447.38 -154.103)" fill="none" stroke="#9ca8c5" stroke-width="1"/>
      <path id="leftEdge-20" data-name="leftEdge" transform="translate(0 0)" fill="none" stroke="rgba(0,0,0,0)" stroke-width="1"/>
      <path id="rightEdge-20" data-name="rightEdge" d="M-3.75-2h0L2.125,1.133-3.75,4.266l1.175-3.133Z" transform="translate(40.138 196.528)" fill="#9ca8c5" stroke="#9ca8c5" stroke-width="1"/>
    </g>
    <g id="Group_12" data-name="Group 12" transform="translate(990.15 6021.546)">
      <rect id="Rectangle_3" data-name="Rectangle 3" width="138" height="52" transform="translate(-0.15 0.454)" fill="#353f67"/>
      <text id="Favorites" transform="translate(66.85 30.454)" fill="#ecefee" font-size="13" font-family="OpenSans, Open Sans"><tspan x="-27.492" y="0">Favorites</tspan></text>
    </g>
    <g id="Group_15" data-name="Group 15" transform="translate(990.15 6120.236)">
      <rect id="Rectangle_3-2" data-name="Rectangle 3" width="138" height="52" transform="translate(-0.15 -0.236)" fill="#353f67"/>
      <text id="Filter_Pins" data-name="Filter Pins" transform="translate(68.85 29.764)" fill="#ecefee" font-size="13" font-family="OpenSans, Open Sans"><tspan x="-29.574" y="0">Filter Pins</tspan></text>
    </g>
    <g id="Group_16" data-name="Group 16" transform="translate(992.817 6217.592)">
      <rect id="Rectangle_3-3" data-name="Rectangle 3" width="136" height="52" transform="translate(0.183 0.408)" fill="#353f67"/>
      <text id="Location_Details" data-name="Location
Details" transform="translate(66.183 22.408)" fill="#ecefee" font-size="13" font-family="OpenSans, Open Sans"><tspan x="-25.864" y="0">Location</tspan><tspan x="-20.684" y="16">Details</tspan></text>
    </g>
    <g id="Group_29" data-name="Group 29" transform="translate(992.817 6316.282)">
      <rect id="Rectangle_3-4" data-name="Rectangle 3" width="136" height="52" transform="translate(0.183 -0.282)" fill="#353f67"/>
      <text id="Search" transform="translate(67.183 29.718)" fill="#ecefee" font-size="13" font-family="OpenSans, Open Sans"><tspan x="-20.566" y="0">Search</tspan></text>
    </g>
    <g id="Group_19" data-name="Group 19" transform="translate(1200.865 6218.926)">
      <rect id="Rectangle_3-5" data-name="Rectangle 3" width="136" height="51" transform="translate(0.135 0.074)" fill="#353f67"/>
      <text id="Favorite_Location" data-name="Favorite
Location" transform="translate(67.135 22.074)" fill="#ecefee" font-size="13" font-family="OpenSans, Open Sans"><tspan x="-24.391" y="0">Favorite</tspan><tspan x="-25.864" y="16">Location</tspan></text>
    </g>
    <g id="Group_20" data-name="Group 20" transform="translate(1212.625 6057.277)">
      <g id="Rectangle_2" data-name="Rectangle 2" transform="translate(56.852) rotate(45)" fill="none" stroke="#fd4500" stroke-width="2">
        <rect width="80.401" height="80.401" stroke="none"/>
        <rect x="1" y="1" width="78.401" height="78.401" fill="none"/>
      </g>
      <text id="Signed_In_" data-name="Signed
In?" transform="translate(53.375 55.723)" fill="#fd4500" font-size="13" font-family="OpenSans, Open Sans"><tspan x="-20.392" y="0">Signed</tspan><tspan x="-8.592" y="18">In?</tspan></text>
    </g>
    <g id="Group_21" data-name="Group 21" transform="translate(1200.865 5958.865)">
      <rect id="Rectangle_3-6" data-name="Rectangle 3" width="136" height="51" transform="translate(0.135 0.135)" fill="#353f67"/>
      <text id="Sign_Up_Notification" data-name="Sign Up
Notification" transform="translate(67.135 22.135)" fill="#ecefee" font-size="13" font-family="OpenSans, Open Sans"><tspan x="-23.166" y="0">Sign Up</tspan><tspan x="-35.176" y="16">Notification</tspan></text>
    </g>
    <g id="Group_22" data-name="Group 22" transform="translate(350 6112.234)">
      <ellipse id="Ellipse_2" data-name="Ellipse 2" cx="70" cy="33.5" rx="70" ry="33.5" transform="translate(0 -0.234)" fill="#fd4500"/>
      <text id="Splash_Screen" data-name="Splash
Screen" transform="translate(69 30.766)" fill="#fff" font-size="16" font-family="OpenSans, Open Sans"><tspan x="-24.492" y="0">Splash</tspan><tspan x="-25.352" y="19">Screen</tspan></text>
    </g>
    <g id="Group_10" data-name="Group 10" transform="translate(634.066 6120.236)">
      <rect id="Rectangle_3-7" data-name="Rectangle 3" width="137" height="51" transform="translate(-0.066 -0.236)" fill="#353f67"/>
      <text id="Home_Search" data-name="Home/Search" transform="translate(60.934 28.764)" fill="#ecefee" font-size="13" font-family="OpenSans, Open Sans"><tspan x="-41.368" y="0">Home/Search</tspan></text>
    </g>
    <g id="Group_26" data-name="Group 26" transform="translate(634.066 6217.592)">
      <rect id="Rectangle_3-8" data-name="Rectangle 3" width="137" height="50" transform="translate(-0.066 0.408)" fill="#353f67"/>
      <text id="Onboard_Info" data-name="Onboard Info" transform="translate(68.934 30.408)" fill="#ecefee" font-size="13" font-family="OpenSans, Open Sans"><tspan x="-40.831" y="0">Onboard Info</tspan></text>
    </g>
    <g id="Group_25" data-name="Group 25" transform="translate(634.066 6022.88)">
      <rect id="Rectangle_3-9" data-name="Rectangle 3" width="137" height="51" transform="translate(-0.066 0.12)" fill="#353f67"/>
      <text id="Sign_Up" data-name="Sign Up" transform="translate(62.934 29.12)" fill="#ecefee" font-size="13" font-family="OpenSans, Open Sans"><tspan x="-23.166" y="0">Sign Up</tspan></text>
    </g>
    <g id="Group_28" data-name="Group 28" transform="translate(455.358 5838.837)">
      <rect id="Rectangle_3-10" data-name="Rectangle 3" width="138" height="49" transform="translate(-0.358 0.163)" fill="#353f67"/>
      <text id="Email_Verified" data-name="Email Verified" transform="translate(64.642 27.163)" fill="#ecefee" font-size="13" font-family="OpenSans, Open Sans"><tspan x="-41.542" y="0">Email Verified</tspan></text>
    </g>
    <g id="Group_27" data-name="Group 27" transform="translate(454.961 5926.111)">
      <path id="Path_2" data-name="Path 2" d="M15.666,0H137.859L122.193,50.131H0Z" transform="translate(0 0)" fill="#9ca8c5"/>
      <text id="Email_Password" data-name="Email &amp;
Password" transform="translate(67.04 19.889)" fill="#fff" font-size="13" font-family="OpenSans, Open Sans"><tspan x="-22.998" y="0">Email &amp;</tspan><tspan x="-29.348" y="16">Password</tspan></text>
    </g>
    <g id="Group_17" data-name="Group 17" transform="translate(812.775 6120.236)">
      <rect id="Rectangle_3-11" data-name="Rectangle 3" width="136" height="51" transform="translate(0.225 -0.236)" fill="#353f67"/>
      <text id="Destination_Map" data-name="Destination
Map" transform="translate(67.225 21.764)" fill="#ecefee" font-size="13" font-family="OpenSans, Open Sans"><tspan x="-34.884" y="0">Destination</tspan><tspan x="-13.467" y="16">Map</tspan></text>
    </g>
    <g id="Group_24" data-name="Group 24" transform="translate(812.775 5860.175)">
      <rect id="Rectangle_3-12" data-name="Rectangle 3" width="136" height="52" transform="translate(0.225 -0.175)" fill="#353f67"/>
      <text id="Sign_Up_Notification-2" data-name="Sign Up
Notification" transform="translate(67.225 23.825)" fill="#ecefee" font-size="13" font-family="OpenSans, Open Sans"><tspan x="-23.166" y="0">Sign Up</tspan><tspan x="-35.176" y="16">Notification</tspan></text>
    </g>
    <g id="Group_23" data-name="Group 23" transform="translate(823.858 5959.368)">
      <g id="Rectangle_2-2" data-name="Rectangle 2" transform="translate(56.852) rotate(45)" fill="none" stroke="#fd4500" stroke-width="2">
        <rect width="80.401" height="80.401" stroke="none"/>
        <rect x="1" y="1" width="78.401" height="78.401" fill="none"/>
      </g>
      <text id="Signed_In_2" data-name="Signed
In?" transform="translate(54.142 56.632)" fill="#fd4500" font-size="13" font-family="OpenSans, Open Sans"><tspan x="-20.392" y="0">Signed</tspan><tspan x="-8.592" y="18">In?</tspan></text>
    </g>
  </g>
</svg>
