<svg xmlns="http://www.w3.org/2000/svg" width="1126.005" height="429.381" viewBox="0 0 1126.005 429.381">
  <g id="Group_153" data-name="Group 153" transform="translate(-1777.441 -447.724)" opacity="0.25">
    <path id="Path_27762" data-name="Path 27762" d="M2881.24,591.4c-74.315,58.466-198.265,54.026-297.042,15.328-50.085-19.432-93.053-39.215-142.549-60.041-45.08-20.636-94.1-40.245-146.829-59.483l-16.492-5.743c-111.9-35.78-246.6-60.122-370.271,18.055-43.447,25.773-69.6,60.764-87.517,96.462-18.4,35.8-15.858,74.169-12.367,108.248,6.56,31.489,23.353,60.608,40.024,86.017v-4.281a191.848,191.848,0,0,1-10.973-18.97c-15.842-27.436-28.71-56.173-28.193-84.644-.137-28.416-.778-58.062,14.161-84.518,17.936-34.972,43.157-69.87,86.125-95.424,122.243-77.748,256.331-53.939,367.991-18.593l16.419,5.6c52.9,19.047,102.646,38.75,147.347,59.393,49.568,20.845,93.088,40.79,142.792,60.235,100.657,39.55,227.358,43.66,302.121-17.641Z"/>
    <path id="Path_27763" data-name="Path 27763" d="M2888.032,591.4c-72.232,68.983-203.35,65.53-307.689,23.841-47.855-19.993-95.244-40.454-143.055-61.635-45.151-20.656-96.665-40.988-149.555-59.675l-19.089-6.249c-113.334-35.111-248.931-58.513-371.108,22.381-44.161,26.169-66.48,63.594-86.183,99.495-10.588,28.677-13.1,58.855-11.537,88.4,1.265,29.587,17.631,59.218,32.443,87.076q7.363,12.742,15.938,25v-5.527c-4.7-6.864-9.132-13.838-13.283-20.863-14.6-27.438-30.885-56.567-31.995-85.628-1.63-28.965,1.066-58.488,11.058-86.617,19.472-35.37,41.42-72.417,84.857-98.316,120.7-80.477,255.637-57.753,368.827-23.042l19.124,6.26c52.838,18.068,104.983,38.823,150.273,59.4,47.227,21.258,95.649,41.9,143.022,61.749a437.253,437.253,0,0,0,96.046,25.774c33.614,5.045,65.211,5.54,95.821,1.539,49.637-6.252,91.275-24.669,120.543-53.363Z"/>
    <path id="Path_27764" data-name="Path 27764" d="M2893.113,591.4c-29.766,33.421-73.88,52.538-122.414,59.367-30.218,4.72-63.124,4.208-96.635-.689a437.03,437.03,0,0,1-97.4-26.407c-96.932-40.7-186.9-87.2-295.562-122.522l-22.719-7.3c-57.466-17.131-121.914-32.307-182.809-30.225a433.844,433.844,0,0,0-96.218,12.778c-31.328,9.082-61.338,23.958-92.232,44.352-40.493,28.55-67.678,65.533-83.214,103.121a246.427,246.427,0,0,0-10.026,90.166,331.5,331.5,0,0,0,36.144,87.908,140.058,140.058,0,0,0,18.17,26.762v-4.759a138.07,138.07,0,0,1-15.478-23.391,324.4,324.4,0,0,1-35.7-86.454,241.485,241.485,0,0,1,9.779-88.435c14.726-37.1,42.4-73.457,81.588-101.91,30.481-20.268,60.738-34.831,91.206-44.286a422.321,422.321,0,0,1,95.7-12.806c60.751-2.248,124.429,12.349,182,29.505l22.891,7.234c109.272,34.894,199.244,81.639,296.456,122.54a439.116,439.116,0,0,0,96.75,26.582c32.86,4.943,66.147,5.811,95.856,1.549,54.5-6.874,98.9-28.653,127.906-62.68Z"/>
    <path id="Path_27765" data-name="Path 27765" d="M2896.544,591.4c-29.311,39.38-76.243,61.487-128.3,68.877-61.2,9.094-130.823-1.814-193.813-28.234-47.227-21.018-99.635-43.172-144.609-64.972a1541.5,1541.5,0,0,0-155.144-58.764l-23.933-7.536c-59.718-17.9-122.545-31.165-184.707-28.847-31.15.958-65.148,4.218-96.5,13.9a365.646,365.646,0,0,0-92.717,45.893c-19.439,15.173-35.052,32.415-49.232,50.312-14.4,17.717-25.748,36.556-30.155,56.44-7.637,30.376-14.812,61.248-6.443,91.932a326.574,326.574,0,0,0,36.775,88.81q9.452,12.753,20.433,25V839.7q-9.491-10.84-17.713-22.1a322.633,322.633,0,0,1-36.331-87.241c-8.324-30.068-1.275-60.373,6.133-90.088,4.485-19.628,15.117-38.189,29.584-55.769a313.6,313.6,0,0,1,48.318-49.733c60.8-42.277,122.792-59.192,187.635-59.891,61.924-2.264,124.05,10.318,184.007,28.165l23.967,7.421a1530.537,1530.537,0,0,1,155.794,58.713c45.315,21.786,97.04,44.1,144.818,65.155,61.358,25.948,132.161,37.2,192.449,29.046C2825.044,655.8,2872,630.737,2900.384,591.4Z"/>
    <path id="Path_27766" data-name="Path 27766" d="M2898.5,591.4c-62.273,96.393-209.6,100.058-326.144,49.064-25.8-11.443-50.587-22.471-74.618-33.039-24.966-11.319-45.785-23-71.189-33.6-49.55-22.048-103.9-41.521-158.307-58.48l-24.994-7.719c-61.693-18.349-123-29.734-186.645-27.488-65.624.953-128.325,19.11-188.6,63.218-36.74,32.168-68.7,69.326-76.848,109.9-21.579,61.929,1,127.388,35.9,183.431q10.011,12.268,21.138,24v-4.394q-9.771-10.386-18.691-21.185c-33.957-55.166-56.673-119.349-35.519-180.076,8.121-39.975,39.06-76.709,75.667-108.551,59.316-43.906,121.386-62.246,186.677-63.295,63.68-2.119,124.248,8.571,185.932,26.794l25.068,7.624c54.851,17.088,109.2,36.079,159.058,58.217,25.3,10.7,46.869,22.231,71.086,33.7,24.129,10.6,49.033,21.658,74.9,33.114,117.659,51.87,267.242,47.757,329.629-51.235Z"/>
    <path id="Path_27767" data-name="Path 27767" d="M2900.06,591.4C2841.9,697.68,2689.437,702.922,2570.4,648.671c-26.495-11.879-51.673-23.26-75.952-34.141q-33.3-17.945-71.059-34.051c-50.727-22.149-104.494-40.246-161.5-58.08l-26.069-7.907c-63.171-18.42-122.992-27.688-188.645-26.023a303.53,303.53,0,0,0-95.888,17.078c-30.322,11.178-65.985,25.383-91.464,49.87a351.658,351.658,0,0,0-47.618,50.416c-13.129,17.6-19.194,37.008-25.582,56.2-5.106,19.325-10.525,38.8-8.882,58.515a328.526,328.526,0,0,0,12.038,58.557c8.248,35.24,29.5,68.319,58.415,98v-4.2c-27.58-28.746-47.518-60.569-55.5-94.4a330.993,330.993,0,0,1-11.809-57.408c-1.71-19.378,3.682-38.5,8.727-57.481,6.15-18.9,12.51-37.861,24.913-55.429a352.991,352.991,0,0,1,46.944-49.656c116.491-91.315,253.172-73.854,373.3-41.708l26.2,7.712c57.52,17.984,111.245,35.589,162.284,57.827,25.2,10.907,49.135,22.045,71.373,34.137,23.81,11.7,51.047,22.845,75.779,34.336,120.094,54.988,274.825,49.34,333.042-59.433Z"/>
  </g>
</svg>
