<svg xmlns="http://www.w3.org/2000/svg" width="774.022" height="1242.954" viewBox="0 0 774.022 1242.954">
  <g id="Group_152" data-name="Group 152" transform="translate(-852.212 268.213)" opacity="0.25">
    <path id="Path_27756" data-name="Path 27756" d="M1529.242-222.193c-20.689-21.607-42.924-36.253-66.151-46.02v2.955c22.467,9.624,43.938,23.88,63.875,44.69,43.776,43.943,80.406,107.1,90.146,179.183,6.018,34.664,7.486,68.458,4.291,98.378-5.814,31.746-17.5,60.168-32.622,81.036-26.888,37.125-73.4,62.5-129.007,80.116-57.214,17.758-125.663,27.934-191.49,34.6-91.433,9.232-184.812,12.846-257.315,17.705-72.388,5.365-135.352,7.747-149.217,26.462-12.475,11.477-13.759,26.016,2.419,46.457,27.249,32.057,75.112,78.206,141.432,130.187,68.354,52.865,144.285,111.533,215.8,166.817,99.156,78.626,186.253,153.814,210.977,212.5,20.963,49.12,16.359,93.241-9.434,120.641l4.225,1.224c25.766-28.608,29.46-72.692,8.337-122.824-24.794-58.947-112.694-134.731-212.247-213.287-71.357-54.936-147.147-113.322-215.319-165.778-65.825-51.593-114.252-97.362-141.1-129.131-15.776-20.023-14.586-34.343-2.142-45.712,13.876-18.65,75.782-20.982,148.488-26.015,72.037-4.685,164.888-8.04,255.867-16.978,66.168-6.571,134.3-16.414,192.6-34.283,55.812-17.561,102.6-43.092,129.72-80.513,15.357-21.164,26.99-49.655,33.188-81.956,3.284-30.251,1.691-64.383-4.384-99.358C1610.29-113.941,1573.333-177.795,1529.242-222.193Z"/>
    <path id="Path_27757" data-name="Path 27757" d="M1515.017-229.557a206.011,206.011,0,0,0-51.926-38.641v3.027a188.337,188.337,0,0,1,49.863,37.3c42.927,44.542,81.426,103.308,91.655,174.21,6.261,33.828,8.127,67.017,5.312,96.684-1.8,29-15.578,59.221-29.377,80.178-52.035,75.771-179.049,105.24-311.793,121.329-77.345,9.4-157.677,14.635-223.761,19.721-96.713,8.546-161.4,12.172-175.377,31.814-16.541,16.973-9.758,39.261,30.829,76.868,31.058,30.581,75.081,70.808,143.946,124.242,56.68,44.435,117,91.731,175.476,137.646,96.549,78.049,181.067,153.574,204.724,212.068,20.648,50.715,14.5,96.016-14.1,123.02l5.125,1.484c28.321-28.355,32.946-73.849,12.057-125.293-23.695-58.868-108.969-134.913-205.882-213.007-58.5-45.683-118.8-92.793-175.55-137.126-46.486-36.127-97.669-78.188-134.116-114.541-40.545-36.691-59.835-64.768-39.523-84.257,13.484-19.6,78.063-23.023,173.564-31.256,65.894-4.962,146.152-9.913,223.431-19.22C1402.629,231,1531.1,201.709,1583.207,125.412c14.029-21.246,27.619-51.585,29.816-81.19,2.825-29.965,1.007-63.559-5.353-97.841C1597.261-125.17,1558.362-184.656,1515.017-229.557Z"/>
    <path id="Path_27758" data-name="Path 27758" d="M1501-236.868a221.328,221.328,0,0,0-37.908-30.108v3.23a216.233,216.233,0,0,1,35.781,28.546c89.543,79.929,131.705,256.912,73.373,343.787-51.45,77.387-172.736,109.36-304,127.858-75.624,10.862-154.114,17.348-218.967,23.516C954,270.12,893.137,275.222,877.647,295.146c-17.214,19.666-3.173,46.58,36.218,82.216,37.228,35.434,85.126,77.326,135.045,116.375,54.195,43.174,111.757,89.127,167.584,133.673,94.726,78.242,177.555,154.718,200.316,213.679,20.387,52.142,12.743,98.75-18.85,125.191l4.778,1.384c1.1-.945,2.452-1.753,3.485-2.721,28.461-28.309,33.553-73.613,13.611-124.72-22.784-59.147-106.361-136.381-201.392-214.471-55.881-44.383-113.484-90.17-167.613-133.2-140.575-115.692-202.4-166.728-170.217-196.366,14.921-19.788,75.822-24.757,169.949-34.587,64.654-5.987,142.974-12.282,218.489-22.874,131.9-18.252,254.1-50.021,305.834-128.109C1634.291,22.6,1591.359-156.1,1501-236.868Z"/>
    <path id="Path_27759" data-name="Path 27759" d="M1544.181-169.887c-16.505-27.985-35.952-53.584-57.265-74.305a170.716,170.716,0,0,0-23.825-20.4v3.434a170.107,170.107,0,0,1,21.7,18.875c21.165,20.438,40.4,45.735,56.692,73.419,16.2,27.778,30.648,56.616,36.377,90.739,12.4,66.513,14.044,127.417-13.945,172.215-48.617,78.749-169.986,113.344-295.676,134.233-73.87,12.153-150.8,19.995-214.58,27.257-49.416,5.346-82.973,10.716-112.249,16.188-29.426,5.483-47.754,12.02-55.677,22.291-5.9,10.136-8.555,21.632-2.583,35.207,6.147,13.5,20,29.121,38.185,46.535,38.494,34.834,83.33,76.018,132.145,114.451,50.708,41.259,107.393,85.813,160.843,130.816,92.328,77.848,172.82,155.095,194.576,214.184,20.176,53.4,11.253,101.562-23.327,127.44l4.289,1.242c2.357-1.9,5.021-3.594,7.182-5.616,28.391-28.334,33.9-73.271,15.007-123.835-21.811-59.406-103.13-137.193-195.767-215.008-53.463-44.828-110.143-89.265-160.793-130.328-48.122-37.986-93.254-78.652-131.328-113.131-18.02-17.181-31.744-32.645-37.881-46.021-5.9-13.439-3.347-24.839,2.452-34.888,7.836-10.236,25.926-16.718,54.957-22.138,29.6-5.315,62.232-10.6,111.227-15.762,63.58-7.08,140.339-14.726,214.21-26.644,127.053-20.556,248.221-54.963,297.53-134.534,14.583-22.89,20.919-49.437,22.268-78.685,1.732-29.561-1.062-62.385-7.973-95.534C1575.015-112.614,1560.511-141.829,1544.181-169.887Z"/>
    <path id="Path_27760" data-name="Path 27760" d="M1472.908-251.137q-4.824-4.95-9.817-9.25v3.487c2.655,2.361,5.278,4.841,7.859,7.48,41.441,41.106,78.481,97.166,94.378,159.372,13.564,64.559,13.6,126.082-9.774,169.753-45.6,80.225-167.172,117.343-287.279,140.576-72.377,13.367-147.632,22.532-210.221,30.859-47.871,6.217-82.88,11.826-108.848,18.317-29.041,5.959-47.3,12.933-55.3,23.424a20.321,20.321,0,0,0-4.2,16.459c-1.331,5.87-.319,12.111,2.573,18.84,5.81,13.473,19.135,28.876,36.721,45.994,37.036,34.295,83.015,74.9,129.085,112.6,48.637,40.241,102.952,83.93,154.106,128.027,44.534,38.332,87.074,77.472,120.641,114.432,32.924,36.047,57.711,70.162,68.236,100.145,19.672,54.878,9.7,104.6-27.829,129.744l3.806,1.1a130.743,130.743,0,0,0,10.8-8.538c28.31-28.291,34.238-72.872,16.37-123.077-10.687-30.216-35.594-64.421-68.713-100.592-34.089-37.467-76.551-76.345-121.247-114.779-51.185-43.99-105.585-87.519-154.2-127.574-45.359-37.309-91.653-77.469-128.232-111.274C914.4,357.5,901.237,342.2,895.477,328.927c-2.908-6.673-3.841-12.9-2.62-18.675a20.038,20.038,0,0,1,4.087-16.313c7.907-10.455,25.846-17.344,54.506-23.29,26.275-6.279,60.419-11.843,107.878-17.94,62.454-8.126,137.574-17.09,209.8-30.2,121.536-23,242.994-59.969,289.178-140.926,24.035-44.385,23.746-106.336,10.045-171.724C1552.266-153,1514.872-209.639,1472.908-251.137Z"/>
    <path id="Path_27761" data-name="Path 27761" d="M1463.091-254.2v3.9c38.528,39.079,71.271,92.974,88.854,148.681,14.812,63.117,13.945,125.16-5.176,167.354-42.247,81.081-163.092,121.111-279.658,146.391-68.429,14.75-143.707,25.054-204.64,34.4-46.669,7.108-82,13.165-106.3,20.373-27.005,6.733-46.269,13.9-53.973,24.711-11.626,20.565-1.208,46.91,34.445,80.8,16.808,16.831,38.6,35.228,60.464,54.188,20.736,18.812,43.376,38.059,65.486,56.665,46.655,39.31,98.751,82.116,147.736,125.4,43.248,38.261,84.232,77.067,117.08,114.415,31.862,36.109,55.6,70.215,65.749,100.454,19.005,55.349,8.331,105.944-30.728,130.709-.649.409-1.608.618-2.337,1.064l4.012,1.163a1.561,1.561,0,0,0,.428-.177,103.052,103.052,0,0,0,14.016-11.332c28.288-28.243,34.8-72.471,17.808-122.126-10.364-30.535-33.989-64.5-66.31-101.09-33.042-37.472-74.232-76.339-117.667-114.592C1163.427,564,1111.288,521.365,1064.671,482.19c-21.881-18.362-44.362-37.384-64.926-56.023-22.406-18.754-43.505-36.95-60.312-53.547-35.3-33.551-45.8-59.618-34.227-80.014,7.731-10.751,26.3-17.877,53.535-24.475,24-7.063,58.9-13.065,105.016-19.969,61.042-9.194,135.513-19.313,204.755-33.766,117.178-25.164,238.077-64.877,281.317-147.049,19.307-42.572,20.135-105.278,5.076-169.076C1536.851-159.182,1502.9-214.6,1463.091-254.2Z"/>
  </g>
</svg>
